<?xml version="1.0" encoding="UTF-8" standalone="no"?>
<!-- Generiert durch Microsoft Visio 11.0, SVG Export, v1.0 SDQ-Logo-new.svg Page-8 -->

<svg
   xmlns:v="http://schemas.microsoft.com/visio/2003/SVGExtensions/"
   xmlns:dc="http://purl.org/dc/elements/1.1/"
   xmlns:cc="http://creativecommons.org/ns#"
   xmlns:rdf="http://www.w3.org/1999/02/22-rdf-syntax-ns#"
   xmlns:svg="http://www.w3.org/2000/svg"
   xmlns="http://www.w3.org/2000/svg"
   xmlns:xlink="http://www.w3.org/1999/xlink"
   xmlns:sodipodi="http://sodipodi.sourceforge.net/DTD/sodipodi-0.dtd"
   xmlns:inkscape="http://www.inkscape.org/namespaces/inkscape"
   width="8.26772in"
   height="11.6929in"
   viewBox="0 0 595.276 841.89"
   xml:space="preserve"
   color-interpolation-filters="sRGB"
   class="st15"
   id="svg2"
   version="1.1"
   inkscape:version="0.47pre4 "
   sodipodi:docname="SDQ-Logo-kit.svg"
   inkscape:export-filename="D:\Data\SDQ\SDQ-Logo-new.png"
   inkscape:export-xdpi="20.630404"
   inkscape:export-ydpi="20.630404"><metadata
   id="metadata129"><rdf:RDF><cc:Work
       rdf:about=""><dc:format>image/svg+xml</dc:format><dc:type
         rdf:resource="http://purl.org/dc/dcmitype/StillImage" /><dc:title /></cc:Work></rdf:RDF></metadata><defs
   id="defs127"><linearGradient
   id="linearGradient3862"><stop
     style="stop-color:#4664aa;stop-opacity:1;"
     offset="0"
     id="stop3864" /><stop
     id="stop3872"
     offset="0.50370371"
     style="stop-color:#7d92c3;stop-opacity:1;" /><stop
     style="stop-color:#4664aa;stop-opacity:1"
     offset="1"
     id="stop3866" /></linearGradient><inkscape:perspective
   sodipodi:type="inkscape:persp3d"
   inkscape:vp_x="0 : 526.18048 : 1"
   inkscape:vp_y="0 : 1000 : 0"
   inkscape:vp_z="744.09485 : 526.18048 : 1"
   inkscape:persp3d-origin="372.04742 : 350.78699 : 1"
   id="perspective131" />
		
		<v:pageProperties
   v:shadowOffsetY="-8.50394"
   v:shadowOffsetX="8.50394"
   v:drawingUnits="24"
   v:pageScale="0.0393701"
   v:drawingScale="0.0393701" />
		<v:layer
   v:index="0"
   v:name="Verbinder" />
		
		
		
		
		
		
		
		
		
		
		
		
		
		
		
		
		
	
			
			
			
		
				
				
				<v:textBlock
   v:tabSpace="42.5197"
   v:margins="rect(4,4,4,4)" />
				<v:textRect
   height="42.7422"
   width="85.64"
   cy="820.519"
   cx="42.8166" />
				
							
			
			
		<linearGradient
   inkscape:collect="always"
   xlink:href="#linearGradient3862"
   id="linearGradient3868"
   x1="346.89658"
   y1="493.65787"
   x2="219.97647"
   y2="215.35788"
   gradientUnits="userSpaceOnUse"
   spreadMethod="pad" /></defs><sodipodi:namedview
   pagecolor="#ffffff"
   bordercolor="#666666"
   borderopacity="1"
   objecttolerance="10"
   gridtolerance="10"
   guidetolerance="10"
   inkscape:pageopacity="0"
   inkscape:pageshadow="2"
   inkscape:window-width="1280"
   inkscape:window-height="972"
   id="namedview125"
   showgrid="false"
   inkscape:zoom="0.44851531"
   inkscape:cx="1298.8831"
   inkscape:cy="255.74103"
   inkscape:window-x="1272"
   inkscape:window-y="-8"
   inkscape:window-maximized="1"
   inkscape:current-layer="svg2" />
	<v:documentProperties
   v:langID="1031"
   v:metric="true"
   v:viewMarkup="false" />

	<style
   type="text/css"
   id="style4">
	
		.st1 {fill:#4664aa;stroke:#4d4d4d;stroke-linecap:round;stroke-linejoin:round;stroke-width:2.16}
		.st2 {stroke:#e3e8f2;stroke-linecap:round;stroke-linejoin:round;stroke-width:3.12}
		.st3 {fill:none;stroke:#e3e8f2;stroke-linecap:round;stroke-linejoin:round;stroke-width:3.12}
		.st4 {stroke:#e3e8f2;stroke-dasharray:3.12,6.24;stroke-linecap:round;stroke-linejoin:round;stroke-width:3.12}
		.st5 {fill:none;stroke:none;stroke-linecap:round;stroke-linejoin:round;stroke-width:0.72}
		.st6 {fill:#ffffff;font-family:Frutiger Linotype;font-size:18em}
		.st7 {fill:#ffbf15;stroke:#e3e8f2;stroke-linecap:round;stroke-linejoin:round;stroke-width:3.12}
		.st8 {fill:none;stroke:none;stroke-linecap:round;stroke-linejoin:round;stroke-width:3.12}
		.st9 {fill:#000000;font-family:Courier New;font-size:1.00001em;font-weight:bold}
		.st10 {baseline-shift:-32.4941%;font-size:0.649882em}
		.st11 {font-size:1em}
		.st12 {fill:none;stroke:#ffffff;stroke-linecap:round;stroke-linejoin:round;stroke-width:17}
		.st13 {fill:#ffffff;font-family:Frutiger Linotype;font-size:2.58334em;font-weight:bold}
		.st14 {fill:#ffffff;stroke:none;stroke-linecap:round;stroke-linejoin:round;stroke-width:0.75}
		.st15 {fill:none;fill-rule:evenodd;font-size:12;overflow:visible;stroke-linecap:square;stroke-miterlimit:3}
	
	</style>

	<path
   d="m 26.916834,216.43788 512.829996,0 c 10.32807,-3.1e-4 20.59267,4.25124 27.89572,11.55429 7.30305,7.30305 11.5546,17.56764 11.55428,27.89571 l 0,236.69 -512.829996,0 C 56.038763,492.57819 45.77417,488.32664 38.47112,481.02359 31.168071,473.72054 26.91652,463.45595 26.916834,453.12788 l 0,-236.69 z"
   class="st1"
   id="path13"
   style="fill:url(#linearGradient3868);stroke:#4d4d4d;stroke-width:3.06000447;stroke-linecap:round;stroke-linejoin:round;fill-opacity:1;opacity:1;stroke-miterlimit:3;stroke-dasharray:none"
   sodipodi:nodetypes="ccscccscc"
   inkscape:export-xdpi="19.51"
   inkscape:export-ydpi="19.51" /><g
   transform="matrix(-1,0,0,-1,429.51883,1174.4999)"
   v:groupContext="shape"
   v:mID="3"
   id="shape3-3"
   style="fill:none;stroke:#c7d0e5;stroke-opacity:1">
			<title
   id="title16">Tabelle.3</title>
			<path
   style="fill:none;stroke:#c7d0e5;stroke-width:3.11999989;stroke-linecap:round;stroke-linejoin:round;stroke-opacity:1"
   id="path18"
   class="st2"
   d="M 0,841.89 A 19.7615,19.7615 -180 0 0 19.76,822.13 19.7615,19.7615 -180 0 0 0,802.37" />
		</g><g
   transform="translate(417.99183,-476.89312)"
   v:groupContext="shape"
   v:mID="4"
   id="shape4-6"
   style="fill:none;stroke:#c7d0e5;stroke-opacity:1">
			<title
   id="title21">Tabelle.4</title>
			<ellipse
   style="fill:none;stroke:#c7d0e5;stroke-width:3.11999989;stroke-linecap:round;stroke-linejoin:round;stroke-opacity:1"
   sodipodi:ry="12.351"
   sodipodi:rx="12.351"
   sodipodi:cy="829.539"
   sodipodi:cx="12.351"
   d="m 24.702,829.539 c 0,6.82127 -5.529731,12.351 -12.351,12.351 C 5.529731,841.89 0,836.36027 0,829.539 c 0,-6.82127 5.529731,-12.351 12.351,-12.351 6.821269,0 12.351,5.52973 12.351,12.351 z"
   id="ellipse23"
   class="st3"
   ry="12.351"
   rx="12.351"
   cy="829.539"
   cx="12.351" />
		</g><g
   transform="translate(442.66583,-490.06712)"
   v:groupContext="shape"
   v:mID="5"
   id="shape5-8"
   style="fill:none;stroke:#c7d0e5;stroke-opacity:1">
			<title
   id="title26">Tabelle.5</title>
			<path
   style="fill:none;stroke:#c7d0e5;stroke-width:3.11999989;stroke-linecap:round;stroke-linejoin:round;stroke-opacity:1"
   id="path28"
   class="st2"
   d="m 0,841.89 13.75,0" />
		</g><g
   transform="translate(400.97483,-490.06712)"
   v:groupContext="shape"
   v:mID="6"
   id="shape6-11"
   style="fill:none;stroke:#c7d0e5;stroke-opacity:1">
			<title
   id="title31">Tabelle.6</title>
			<path
   style="fill:none;stroke:#c7d0e5;stroke-width:3.11999989;stroke-linecap:round;stroke-linejoin:round;stroke-opacity:1"
   id="path33"
   class="st2"
   d="m 0,841.89 8.78,0" />
		</g><g
   transform="matrix(0,1,-1,0,1242.8628,325.47388)"
   v:groupContext="shape"
   v:mID="7"
   id="shape7-14"
   style="fill:none;stroke:#c7d0e5;stroke-opacity:1">
			<title
   id="title36">Tabelle.7</title>
			<path
   style="fill:none;stroke:#c7d0e5;stroke-width:3.11999989;stroke-linecap:round;stroke-linejoin:round;stroke-opacity:1"
   id="path38"
   class="st2"
   d="m 0,841.89 52.7,0" />
		</g><g
   transform="translate(362.02883,-516.41612)"
   v:groupContext="shape"
   v:mID="8"
   id="shape8-17"
   style="fill:none;stroke:#c7d0e5;stroke-opacity:1">
			<title
   id="title41">Tabelle.8</title>
			<path
   style="fill:none;stroke:#c7d0e5;stroke-width:3.11999989;stroke-linecap:round;stroke-linejoin:round;stroke-opacity:1"
   id="path43"
   class="st2"
   d="m 0,841.89 37.85,0" />
		</g><g
   transform="translate(375.85383,-463.71812)"
   v:groupContext="shape"
   v:mID="9"
   id="shape9-20"
   style="fill:none;stroke:#c7d0e5;stroke-opacity:1">
			<title
   id="title46">Tabelle.9</title>
			<path
   style="fill:none;stroke:#c7d0e5;stroke-width:3.11999989;stroke-linecap:round;stroke-linejoin:round;stroke-opacity:1"
   id="path48"
   class="st2"
   d="m 0,841.89 25.12,0" />
		</g><g
   transform="matrix(0,1,-1,0,1298.3028,325.47388)"
   v:groupContext="shape"
   v:mID="10"
   id="shape10-23"
   style="fill:none;stroke:#c7d0e5;stroke-opacity:1">
			<title
   id="title51">Tabelle.10</title>
			<path
   style="fill:none;stroke:#c7d0e5;stroke-width:3.11999989;stroke-linecap:round;stroke-linejoin:round;stroke-opacity:1"
   id="path53"
   class="st2"
   d="m 0,841.89 52.7,0" />
		</g><g
   transform="translate(456.41683,-516.41612)"
   v:groupContext="shape"
   v:mID="11"
   id="shape11-26"
   style="fill:none;stroke:#c7d0e5;stroke-opacity:1">
			<title
   id="title56">Tabelle.11</title>
			<path
   style="fill:none;stroke:#c7d0e5;stroke-width:3.11999989;stroke-linecap:round;stroke-linejoin:round;stroke-opacity:1"
   id="path58"
   class="st2"
   d="m 0,841.89 42.43,0" />
		</g><g
   transform="translate(456.41683,-463.71812)"
   v:groupContext="shape"
   v:mID="12"
   id="shape12-29"
   style="fill:none;stroke:#c7d0e5;stroke-opacity:1">
			<title
   id="title61">Tabelle.12</title>
			<path
   style="fill:none;stroke:#c7d0e5;stroke-width:3.11999989;stroke-linecap:round;stroke-linejoin:round;stroke-opacity:1"
   id="path63"
   class="st2"
   d="m 0,841.89 28.6,0" />
		</g><g
   transform="matrix(-0.30043946,0.95380089,-0.95380089,-0.30043946,1242.3928,574.14288)"
   v:groupContext="shape"
   v:mID="13"
   id="shape13-32"
   style="fill:none;stroke:#c7d0e5;stroke-opacity:1">
			<title
   id="title66">Tabelle.13</title>
			<path
   style="fill:none;stroke:#c7d0e5;stroke-width:3.11999989;stroke-linecap:round;stroke-linejoin:round;stroke-opacity:1;stroke-dasharray:3.12, 6.24"
   id="path68"
   class="st4"
   d="m 0,841.89 20.39,0" />
		</g><g
   id="shape17-39"
   v:mID="17"
   v:groupContext="shape"
   transform="translate(393.90883,-524.38012)"
   style="fill:#ffb500;fill-opacity:1;stroke:#c7d0e5;stroke-opacity:1">
				<title
   id="title83">Tabelle.17</title>
				<path
   d="m 0,797.23 0,44.66 89.32,0 0,-29.77 -22.33,-14.89 -66.99,0 z"
   class="st7"
   id="path85"
   style="fill:#ffb500;fill-opacity:1;stroke:#c7d0e5;stroke-width:3.11999989;stroke-linecap:round;stroke-linejoin:round;stroke-opacity:1" />
			</g><g
   id="g3072"
   transform="translate(4.8000068,3.2000047)"
   style="fill:#666666"><g
   style="font-size:32.00004578px;font-style:normal;font-weight:normal;fill:#666666;fill-opacity:1;stroke:none;font-family:Bitstream Vera Sans"
   id="text3058"><path
     d="m 408.27734,287.25891 -1.40625,0 -1.9875,-3.3 -1.99376,3.3 -1.3875,0 2.71876,-4.175 -2.50001,-3.99376 1.31875,0 1.86876,3.075 1.88125,-3.075 1.28125,0 -2.50625,3.94376 z"
     style="font-size:12.80001831px;fill:#666666;font-family:Consolas;-inkscape-font-specification:Consolas"
     id="path2896" /><path
     d="m 435.79613,283.22141 -5.37501,0 0,-0.91876 5.37501,0 z m 0,2.175 -5.37501,0 0,-0.91875 5.37501,0 z"
     style="font-size:12.80001831px;fill:#666666;font-family:Consolas;-inkscape-font-specification:Consolas"
     id="path2898" /><path
     d="m 442.87114,287.25891 -5.13126,0 0,-1.0125 2.10001,0 0,-5.96251 -1.95626,1.0625 -0.4,-0.925 2.60001,-1.36875 0.9625,0 0,7.19376 1.825,0 z"
     style="font-size:12.80001831px;fill:#666666;font-family:Consolas;-inkscape-font-specification:Consolas"
     id="path2900" /><path
     d="m 447.15865,285.29016 c 0.14166,0 0.27604,0.0271 0.40312,0.0813 0.12708,0.0542 0.2375,0.12917 0.33125,0.225 0.0937,0.0958 0.16771,0.20729 0.22188,0.33437 0.0542,0.12709 0.0812,0.26355 0.0813,0.40938 -10e-6,0.14167 -0.0271,0.275 -0.0813,0.4 -0.0542,0.125 -0.12813,0.23438 -0.22188,0.32813 -0.0937,0.0937 -0.20417,0.1677 -0.33125,0.22187 -0.12708,0.0542 -0.26146,0.0813 -0.40312,0.0813 -0.14584,0 -0.28126,-0.0271 -0.40625,-0.0813 -0.12501,-0.0542 -0.23438,-0.12812 -0.32813,-0.22187 -0.0937,-0.0937 -0.16771,-0.20313 -0.22187,-0.32813 -0.0542,-0.125 -0.0813,-0.25833 -0.0813,-0.4 -10e-6,-0.14583 0.0271,-0.28229 0.0813,-0.40938 0.0542,-0.12708 0.12812,-0.23854 0.22187,-0.33437 0.0937,-0.0958 0.20312,-0.17083 0.32813,-0.225 0.12499,-0.0542 0.26041,-0.0813 0.40625,-0.0813 z"
     style="font-size:12.80001831px;fill:#666666;font-family:Consolas;-inkscape-font-specification:Consolas"
     id="path2902" /><path
     d="m 457.22741,283.17766 c 0,0.625 -0.0625,1.19479 -0.1875,1.70937 -0.125,0.51459 -0.31459,0.95626 -0.56875,1.325 -0.25417,0.36876 -0.5698,0.65417 -0.94688,0.85626 -0.37708,0.20208 -0.81979,0.30312 -1.32812,0.30312 -0.43751,0 -0.83542,-0.0823 -1.19375,-0.24687 -0.35834,-0.16459 -0.66459,-0.41771 -0.91876,-0.75938 -0.25416,-0.34167 -0.45,-0.77708 -0.5875,-1.30625 -0.1375,-0.52917 -0.20625,-1.15625 -0.20625,-1.88125 0,-0.625 0.0635,-1.19583 0.19063,-1.71251 0.12708,-0.51666 0.31666,-0.95937 0.56875,-1.32812 0.25208,-0.36875 0.56771,-0.65416 0.94688,-0.85626 0.37916,-0.20207 0.82083,-0.30311 1.325,-0.30312 0.43749,1e-5 0.83541,0.0823 1.19375,0.24687 0.35833,0.1646 0.66458,0.41876 0.91875,0.76251 0.25416,0.34375 0.45,0.78021 0.5875,1.30937 0.1375,0.52918 0.20625,1.15626 0.20625,1.88126 z m -1.1,0.0375 c -10e-6,-0.14167 -0.005,-0.28229 -0.0156,-0.42188 -0.0104,-0.13958 -0.0219,-0.27604 -0.0344,-0.40938 l -3.45625,2.56876 c 0.0625,0.21667 0.14166,0.41667 0.2375,0.6 0.0958,0.18333 0.21145,0.34063 0.34687,0.47187 0.13542,0.13126 0.28958,0.23334 0.4625,0.30625 0.17292,0.0729 0.36979,0.10938 0.59063,0.10938 0.28333,0 0.54062,-0.0687 0.77187,-0.20625 0.23125,-0.1375 0.42812,-0.34167 0.59063,-0.6125 0.16249,-0.27083 0.28749,-0.60729 0.375,-1.00938 0.0875,-0.40208 0.13124,-0.8677 0.13125,-1.39687 z m -3.73751,-0.075 c 0,0.12917 0.001,0.25833 0.003,0.3875 0.002,0.12917 0.009,0.25417 0.0219,0.375 l 3.45626,-2.55626 c -0.0625,-0.21249 -0.14167,-0.40624 -0.2375,-0.58125 -0.0958,-0.17499 -0.21042,-0.32603 -0.34375,-0.45312 -0.13334,-0.12708 -0.28542,-0.22604 -0.45625,-0.29688 -0.17084,-0.0708 -0.36251,-0.10624 -0.575,-0.10625 -0.28334,10e-6 -0.54063,0.0688 -0.77188,0.20625 -0.23125,0.13751 -0.42813,0.34272 -0.59062,0.61563 -0.16251,0.27292 -0.28751,0.61042 -0.375,1.0125 -0.0875,0.40209 -0.13126,0.86771 -0.13126,1.39688 z"
     style="font-size:12.80001831px;fill:#666666;font-family:Consolas;-inkscape-font-specification:Consolas"
     id="path2904" /><path
     d="m 464.27742,283.17766 c 0,0.625 -0.0625,1.19479 -0.1875,1.70937 -0.125,0.51459 -0.31459,0.95626 -0.56875,1.325 -0.25417,0.36876 -0.5698,0.65417 -0.94687,0.85626 -0.37709,0.20208 -0.8198,0.30312 -1.32813,0.30312 -0.43751,0 -0.83542,-0.0823 -1.19375,-0.24687 -0.35834,-0.16459 -0.66459,-0.41771 -0.91875,-0.75938 -0.25417,-0.34167 -0.45001,-0.77708 -0.58751,-1.30625 -0.1375,-0.52917 -0.20625,-1.15625 -0.20625,-1.88125 0,-0.625 0.0636,-1.19583 0.19063,-1.71251 0.12708,-0.51666 0.31667,-0.95937 0.56875,-1.32812 0.25208,-0.36875 0.56771,-0.65416 0.94688,-0.85626 0.37916,-0.20207 0.82083,-0.30311 1.325,-0.30312 0.43749,1e-5 0.83541,0.0823 1.19375,0.24687 0.35833,0.1646 0.66458,0.41876 0.91875,0.76251 0.25416,0.34375 0.45,0.78021 0.5875,1.30937 0.1375,0.52918 0.20625,1.15626 0.20625,1.88126 z m -1.1,0.0375 c 0,-0.14167 -0.005,-0.28229 -0.0156,-0.42188 -0.0104,-0.13958 -0.0219,-0.27604 -0.0344,-0.40938 l -3.45625,2.56876 c 0.0625,0.21667 0.14166,0.41667 0.2375,0.6 0.0958,0.18333 0.21145,0.34063 0.34687,0.47187 0.13542,0.13126 0.28958,0.23334 0.4625,0.30625 0.17292,0.0729 0.36979,0.10938 0.59063,0.10938 0.28333,0 0.54062,-0.0687 0.77187,-0.20625 0.23125,-0.1375 0.42813,-0.34167 0.59063,-0.6125 0.1625,-0.27083 0.2875,-0.60729 0.375,-1.00938 0.0875,-0.40208 0.13125,-0.8677 0.13125,-1.39687 z m -3.7375,-0.075 c -10e-6,0.12917 0.001,0.25833 0.003,0.3875 0.002,0.12917 0.009,0.25417 0.0219,0.375 l 3.45625,-2.55626 c -0.0625,-0.21249 -0.14167,-0.40624 -0.2375,-0.58125 -0.0958,-0.17499 -0.21042,-0.32603 -0.34375,-0.45312 -0.13334,-0.12708 -0.28542,-0.22604 -0.45625,-0.29688 -0.17084,-0.0708 -0.36251,-0.10624 -0.575,-0.10625 -0.28334,10e-6 -0.54063,0.0688 -0.77188,0.20625 -0.23125,0.13751 -0.42813,0.34272 -0.59062,0.61563 -0.16251,0.27292 -0.28751,0.61042 -0.375,1.0125 -0.0875,0.40209 -0.13126,0.86771 -0.13125,1.39688 z"
     style="font-size:12.80001831px;fill:#666666;font-family:Consolas;-inkscape-font-specification:Consolas"
     id="path2906" /><path
     d="m 408.27734,303.25893 -1.40625,0 -1.9875,-3.3 -1.99376,3.3 -1.3875,0 2.71876,-4.175 -2.50001,-3.99376 1.31875,0 1.86876,3.07501 1.88125,-3.07501 1.28125,0 -2.50625,3.94376 z"
     style="font-size:12.80001831px;fill:#666666;font-family:Consolas;-inkscape-font-specification:Consolas"
     id="path2908" /><path
     d="m 435.79613,299.22143 -5.37501,0 0,-0.91875 5.37501,0 z m 0,2.175 -5.37501,0 0,-0.91875 5.37501,0 z"
     style="font-size:12.80001831px;fill:#666666;font-family:Consolas;-inkscape-font-specification:Consolas"
     id="path2910" /><path
     d="m 443.12739,299.17768 c -10e-6,0.625 -0.0625,1.19479 -0.1875,1.70938 -0.12501,0.51458 -0.31459,0.95625 -0.56875,1.325 -0.25417,0.36875 -0.5698,0.65417 -0.94688,0.85625 -0.37709,0.20208 -0.81979,0.30312 -1.32812,0.30312 -0.43751,0 -0.83542,-0.0823 -1.19376,-0.24687 -0.35833,-0.16458 -0.66458,-0.41771 -0.91875,-0.75938 -0.25417,-0.34166 -0.45,-0.77708 -0.5875,-1.30625 -0.1375,-0.52916 -0.20625,-1.15625 -0.20625,-1.88125 0,-0.625 0.0635,-1.19583 0.19063,-1.7125 0.12708,-0.51667 0.31666,-0.95937 0.56875,-1.32813 0.25208,-0.36874 0.56771,-0.65416 0.94687,-0.85625 0.37917,-0.20208 0.82084,-0.30312 1.32501,-0.30313 0.43749,1e-5 0.83541,0.0823 1.19375,0.24688 0.35833,0.16459 0.66458,0.41876 0.91875,0.7625 0.25416,0.34376 0.44999,0.78021 0.5875,1.30938 0.13749,0.52917 0.20624,1.15625 0.20625,1.88125 z m -1.1,0.0375 c -1e-5,-0.14166 -0.005,-0.28229 -0.0156,-0.42188 -0.0104,-0.13958 -0.0219,-0.27603 -0.0344,-0.40937 l -3.45626,2.56875 c 0.0625,0.21667 0.14167,0.41667 0.2375,0.6 0.0958,0.18334 0.21146,0.34063 0.34688,0.47188 0.13541,0.13125 0.28958,0.23333 0.4625,0.30625 0.17291,0.0729 0.36979,0.10937 0.59063,0.10937 0.28333,0 0.54062,-0.0688 0.77187,-0.20625 0.23125,-0.1375 0.42812,-0.34166 0.59063,-0.6125 0.16249,-0.27083 0.28749,-0.60729 0.375,-1.00937 0.0875,-0.40209 0.13124,-0.86771 0.13125,-1.39688 z m -3.73751,-0.075 c 0,0.12917 0.001,0.25834 0.003,0.3875 0.002,0.12917 0.009,0.25417 0.0219,0.375 l 3.45626,-2.55625 c -0.0625,-0.2125 -0.14167,-0.40625 -0.2375,-0.58126 -0.0958,-0.17499 -0.21042,-0.32603 -0.34375,-0.45312 -0.13334,-0.12708 -0.28542,-0.22604 -0.45625,-0.29688 -0.17084,-0.0708 -0.36251,-0.10624 -0.575,-0.10625 -0.28334,10e-6 -0.54063,0.0688 -0.77188,0.20625 -0.23125,0.13751 -0.42813,0.34272 -0.59063,0.61563 -0.1625,0.27292 -0.2875,0.61042 -0.375,1.0125 -0.0875,0.40209 -0.13125,0.86772 -0.13125,1.39688 z"
     style="font-size:12.80001831px;fill:#666666;font-family:Consolas;-inkscape-font-specification:Consolas"
     id="path2912" /><path
     d="m 447.15865,301.29018 c 0.14166,0 0.27604,0.0271 0.40312,0.0812 0.12708,0.0542 0.2375,0.12917 0.33125,0.225 0.0937,0.0958 0.16771,0.2073 0.22188,0.33438 0.0542,0.12708 0.0812,0.26354 0.0813,0.40937 -10e-6,0.14167 -0.0271,0.275 -0.0813,0.4 -0.0542,0.125 -0.12813,0.23438 -0.22188,0.32813 -0.0937,0.0937 -0.20417,0.16771 -0.33125,0.22187 -0.12708,0.0542 -0.26146,0.0812 -0.40312,0.0812 -0.14584,0 -0.28126,-0.0271 -0.40625,-0.0812 -0.12501,-0.0542 -0.23438,-0.12812 -0.32813,-0.22187 -0.0937,-0.0937 -0.16771,-0.20313 -0.22187,-0.32813 -0.0542,-0.125 -0.0813,-0.25833 -0.0813,-0.4 -10e-6,-0.14583 0.0271,-0.28229 0.0813,-0.40937 0.0542,-0.12708 0.12812,-0.23854 0.22187,-0.33438 0.0937,-0.0958 0.20312,-0.17083 0.32813,-0.225 0.12499,-0.0542 0.26041,-0.0812 0.40625,-0.0812 z"
     style="font-size:12.80001831px;fill:#666666;font-family:Consolas;-inkscape-font-specification:Consolas"
     id="path2914" /><path
     d="m 457.22741,299.17768 c 0,0.625 -0.0625,1.19479 -0.1875,1.70938 -0.125,0.51458 -0.31459,0.95625 -0.56875,1.325 -0.25417,0.36875 -0.5698,0.65417 -0.94688,0.85625 -0.37708,0.20208 -0.81979,0.30312 -1.32812,0.30312 -0.43751,0 -0.83542,-0.0823 -1.19375,-0.24687 -0.35834,-0.16458 -0.66459,-0.41771 -0.91876,-0.75938 -0.25416,-0.34166 -0.45,-0.77708 -0.5875,-1.30625 -0.1375,-0.52916 -0.20625,-1.15625 -0.20625,-1.88125 0,-0.625 0.0635,-1.19583 0.19063,-1.7125 0.12708,-0.51667 0.31666,-0.95937 0.56875,-1.32813 0.25208,-0.36874 0.56771,-0.65416 0.94688,-0.85625 0.37916,-0.20208 0.82083,-0.30312 1.325,-0.30313 0.43749,1e-5 0.83541,0.0823 1.19375,0.24688 0.35833,0.16459 0.66458,0.41876 0.91875,0.7625 0.25416,0.34376 0.45,0.78021 0.5875,1.30938 0.1375,0.52917 0.20625,1.15625 0.20625,1.88125 z m -1.1,0.0375 c -10e-6,-0.14166 -0.005,-0.28229 -0.0156,-0.42188 -0.0104,-0.13958 -0.0219,-0.27603 -0.0344,-0.40937 l -3.45625,2.56875 c 0.0625,0.21667 0.14166,0.41667 0.2375,0.6 0.0958,0.18334 0.21145,0.34063 0.34687,0.47188 0.13542,0.13125 0.28958,0.23333 0.4625,0.30625 0.17292,0.0729 0.36979,0.10937 0.59063,0.10937 0.28333,0 0.54062,-0.0688 0.77187,-0.20625 0.23125,-0.1375 0.42812,-0.34166 0.59063,-0.6125 0.16249,-0.27083 0.28749,-0.60729 0.375,-1.00937 0.0875,-0.40209 0.13124,-0.86771 0.13125,-1.39688 z m -3.73751,-0.075 c 0,0.12917 0.001,0.25834 0.003,0.3875 0.002,0.12917 0.009,0.25417 0.0219,0.375 l 3.45626,-2.55625 c -0.0625,-0.2125 -0.14167,-0.40625 -0.2375,-0.58126 -0.0958,-0.17499 -0.21042,-0.32603 -0.34375,-0.45312 -0.13334,-0.12708 -0.28542,-0.22604 -0.45625,-0.29688 -0.17084,-0.0708 -0.36251,-0.10624 -0.575,-0.10625 -0.28334,10e-6 -0.54063,0.0688 -0.77188,0.20625 -0.23125,0.13751 -0.42813,0.34272 -0.59062,0.61563 -0.16251,0.27292 -0.28751,0.61042 -0.375,1.0125 -0.0875,0.40209 -0.13126,0.86772 -0.13126,1.39688 z"
     style="font-size:12.80001831px;fill:#666666;font-family:Consolas;-inkscape-font-specification:Consolas"
     id="path2916" /><path
     d="m 464.02117,303.25893 -5.13126,0 0,-1.0125 2.10001,0 0,-5.96251 -1.95626,1.06251 -0.4,-0.92501 2.60001,-1.36875 0.9625,0 0,7.19376 1.825,0 z"
     style="font-size:12.80001831px;fill:#666666;font-family:Consolas;-inkscape-font-specification:Consolas"
     id="path2918" /></g>



<g
   style="font-size:32.00004578px;font-style:normal;font-weight:normal;fill:#666666;fill-opacity:1;stroke:none;font-family:Bitstream Vera Sans"
   id="text3064"><path
     d="m 413.29654,286.71328 c 0,0.41876 -0.0586,0.78438 -0.17578,1.09688 -0.11719,0.3125 -0.27891,0.57188 -0.48516,0.77813 -0.20625,0.20625 -0.45,0.36093 -0.73125,0.46406 -0.28125,0.10312 -0.58594,0.15469 -0.91406,0.15469 -0.15001,0 -0.29922,-0.008 -0.44766,-0.0234 -0.14844,-0.0156 -0.29922,-0.0422 -0.45234,-0.0797 l 0,1.96876 -0.81563,0 0,-6.62814 0.72656,0 0.0516,0.7875 c 0.23437,-0.32187 0.48437,-0.54765 0.75,-0.67734 0.26562,-0.12969 0.55312,-0.19453 0.8625,-0.19453 0.26874,0 0.50468,0.0562 0.70781,0.16875 0.20312,0.1125 0.37344,0.27109 0.51094,0.47578 0.1375,0.20469 0.24062,0.45156 0.30937,0.74062 0.0688,0.28907 0.10313,0.61173 0.10313,0.96797 z m -0.83438,0.0375 c 0,-0.24687 -0.018,-0.47343 -0.0539,-0.67968 -0.0359,-0.20625 -0.093,-0.38281 -0.1711,-0.52969 -0.0781,-0.14687 -0.17813,-0.26172 -0.3,-0.34453 -0.12188,-0.0828 -0.26719,-0.12422 -0.43594,-0.12422 -0.10312,0 -0.20781,0.0164 -0.31406,0.0492 -0.10625,0.0328 -0.21641,0.0875 -0.33047,0.16406 -0.11406,0.0766 -0.23437,0.17813 -0.36094,0.30469 -0.12656,0.12656 -0.26172,0.28359 -0.40546,0.47109 l 0,2.28282 c 0.14999,0.0625 0.30781,0.11172 0.47343,0.14765 0.16563,0.0359 0.32813,0.0539 0.4875,0.0539 0.44063,0 0.78594,-0.14922 1.03594,-0.44766 0.25,-0.29843 0.375,-0.74765 0.375,-1.34766 z"
     style="font-size:9.60001373px;fill:#666666;font-family:Consolas;-inkscape-font-specification:Consolas"
     id="path2921" /><path
     d="m 418.53717,286.54922 c 0,0.11563 -0.002,0.2125 -0.005,0.29063 -0.003,0.0781 -0.008,0.15156 -0.0141,0.22031 l -3.30469,0 c 0,0.48125 0.13437,0.85078 0.40313,1.10859 0.26874,0.25782 0.65624,0.38672 1.1625,0.38672 0.13749,0 0.27499,-0.005 0.4125,-0.0164 0.13749,-0.0109 0.27031,-0.0258 0.39844,-0.0445 0.12812,-0.0187 0.25077,-0.0398 0.36797,-0.0633 0.11718,-0.0234 0.22577,-0.0492 0.32578,-0.0774 l 0,0.67031 c -0.22188,0.0625 -0.47266,0.11329 -0.75235,0.15235 -0.27969,0.0391 -0.56953,0.0586 -0.86953,0.0586 -0.40313,0 -0.75,-0.0547 -1.04063,-0.16406 -0.29062,-0.10938 -0.5289,-0.26797 -0.71484,-0.47578 -0.18594,-0.20781 -0.32344,-0.4625 -0.4125,-0.76407 -0.0891,-0.30156 -0.1336,-0.64296 -0.1336,-1.02422 0,-0.33124 0.0477,-0.64453 0.14297,-0.93984 0.0953,-0.29531 0.23438,-0.55469 0.41719,-0.77813 0.18281,-0.22343 0.40703,-0.40077 0.67266,-0.53203 0.26562,-0.13124 0.56718,-0.19687 0.90469,-0.19687 0.32812,0 0.61874,0.0516 0.87187,0.15468 0.25312,0.10313 0.46641,0.24923 0.63985,0.43829 0.17343,0.18906 0.30468,0.41875 0.39375,0.68906 0.0891,0.27031 0.13359,0.57266 0.13359,0.90703 z m -0.84844,-0.11719 c 0.009,-0.20937 -0.0109,-0.40078 -0.0609,-0.57422 -0.05,-0.17343 -0.12735,-0.32265 -0.23204,-0.44765 -0.10469,-0.125 -0.23516,-0.22266 -0.3914,-0.29297 -0.15626,-0.0703 -0.33751,-0.10547 -0.54375,-0.10547 -0.17813,0 -0.34063,0.0344 -0.4875,0.10312 -0.14688,0.0688 -0.27344,0.16563 -0.37969,0.29063 -0.10625,0.125 -0.19219,0.275 -0.25781,0.45 -0.0656,0.175 -0.10626,0.36719 -0.12188,0.57656 z"
     style="font-size:9.60001373px;fill:#666666;font-family:Consolas;-inkscape-font-specification:Consolas"
     id="path2923" /><path
     d="m 420.04186,284.44453 0.74532,0 0.0234,0.86719 c 0.27813,-0.33437 0.55235,-0.57656 0.82266,-0.72656 0.27031,-0.15 0.54297,-0.225 0.81797,-0.225 0.4875,0 0.85703,0.15781 1.1086,0.47343 0.25155,0.31563 0.36796,0.78438 0.34922,1.40626 l -0.82501,0 c 0.009,-0.4125 -0.0508,-0.71172 -0.18047,-0.89766 -0.12969,-0.18594 -0.31953,-0.2789 -0.56953,-0.27891 -0.10938,10e-6 -0.21953,0.0195 -0.33047,0.0586 -0.11094,0.0391 -0.225,0.10156 -0.34218,0.1875 -0.11719,0.0859 -0.24141,0.19609 -0.37266,0.33046 -0.13125,0.13438 -0.27188,0.29688 -0.42188,0.48751 l 0,3.02344 -0.825,0 z"
     style="font-size:9.60001373px;fill:#666666;font-family:Consolas;-inkscape-font-specification:Consolas"
     id="path2925" /><path
     d="m 429.31375,283.28672 c -0.42813,-0.0906 -0.79688,-0.13594 -1.10625,-0.13594 -0.73438,0 -1.10157,0.38438 -1.10157,1.15313 l 0,0.825 2.06251,0 0,0.67969 -2.06251,0 0,3.34219 -0.82968,0 0,-3.34219 -1.51407,0 0,-0.67969 1.51407,0 0,-0.77813 c -1e-5,-1.25312 0.65312,-1.87968 1.95937,-1.87969 0.325,10e-6 0.68437,0.0375 1.07813,0.1125 z"
     style="font-size:9.60001373px;fill:#666666;font-family:Consolas;-inkscape-font-specification:Consolas"
     id="path2927" /></g>



<g
   style="font-size:32.00004578px;font-style:normal;font-weight:normal;fill:#666666;fill-opacity:1;stroke:none;font-family:Bitstream Vera Sans"
   id="text3068"><path
     d="m 410.97163,299.61724 -1.39219,0 0,-0.67031 2.21719,0 0,5.94376 1.40156,0 0,0.67968 -3.77344,0 0,-0.67968 1.54688,0 z"
     style="font-size:9.60001373px;fill:#666666;font-family:Consolas;-inkscape-font-specification:Consolas"
     id="path2930" /><path
     d="m 418.75289,303.17975 c -10e-6,0.36562 -0.0516,0.70078 -0.15469,1.00547 -0.10313,0.30468 -0.25157,0.56562 -0.44531,0.78281 -0.19376,0.21719 -0.42969,0.38594 -0.70782,0.50625 -0.27812,0.12031 -0.59375,0.18047 -0.94687,0.18047 -0.3375,0 -0.63985,-0.0523 -0.90703,-0.15703 -0.26719,-0.10469 -0.49376,-0.2586 -0.67969,-0.46172 -0.18594,-0.20313 -0.32813,-0.45469 -0.42657,-0.75469 -0.0984,-0.3 -0.14765,-0.64531 -0.14765,-1.03594 0,-0.36562 0.0516,-0.69922 0.15469,-1.00078 0.10312,-0.30156 0.25156,-0.56094 0.44531,-0.77813 0.19375,-0.21718 0.42969,-0.38593 0.70781,-0.50625 0.27813,-0.12031 0.59375,-0.18046 0.94688,-0.18047 0.3375,10e-6 0.63984,0.0523 0.90703,0.15703 0.26719,0.1047 0.49375,0.25782 0.67969,0.45938 0.18593,0.20157 0.32812,0.45235 0.42656,0.75234 0.0984,0.30001 0.14765,0.64376 0.14766,1.03126 z m -0.83438,0.0375 c 0,-0.29063 -0.032,-0.54453 -0.0961,-0.76172 -0.0641,-0.21719 -0.15547,-0.39844 -0.27422,-0.54376 -0.11875,-0.1453 -0.26329,-0.25468 -0.43359,-0.32812 -0.17032,-0.0734 -0.36016,-0.11015 -0.56954,-0.11016 -0.24375,10e-6 -0.45234,0.0477 -0.62578,0.14297 -0.17344,0.0953 -0.31563,0.22266 -0.42656,0.38203 -0.11094,0.15938 -0.19219,0.34454 -0.24375,0.55547 -0.0516,0.21094 -0.0774,0.43204 -0.0774,0.66329 0,0.29062 0.032,0.54531 0.0961,0.76406 0.0641,0.21875 0.15547,0.40078 0.27422,0.54609 0.11875,0.14532 0.2625,0.25469 0.43125,0.32813 0.16875,0.0734 0.35937,0.11016 0.57187,0.11016 0.24375,0 0.45234,-0.0477 0.62579,-0.14297 0.17343,-0.0953 0.31562,-0.22266 0.42656,-0.38204 0.11093,-0.15937 0.19218,-0.34453 0.24375,-0.55547 0.0516,-0.21093 0.0773,-0.43359 0.0773,-0.66796 z"
     style="font-size:9.60001373px;fill:#666666;font-family:Consolas;-inkscape-font-specification:Consolas"
     id="path2932" /><path
     d="m 423.67008,304.286 c 0,0.16562 -0.0281,0.31406 -0.0844,0.44531 -0.0563,0.13125 -0.13282,0.24766 -0.22969,0.34922 -0.0969,0.10156 -0.20938,0.18828 -0.3375,0.26016 -0.12813,0.0719 -0.26485,0.13125 -0.41016,0.17812 -0.14531,0.0469 -0.29453,0.0813 -0.44765,0.10313 -0.15313,0.0219 -0.30313,0.0328 -0.45,0.0328 -0.31876,0 -0.61173,-0.0141 -0.87891,-0.0422 -0.26719,-0.0281 -0.52891,-0.0734 -0.78516,-0.13594 l 0,-0.75 c 0.275,0.0781 0.54844,0.1375 0.82031,0.17813 0.27188,0.0406 0.54219,0.0609 0.81094,0.0609 0.39063,0 0.67969,-0.0531 0.86719,-0.15938 0.1875,-0.10625 0.28125,-0.25781 0.28125,-0.45469 0,-0.0844 -0.0148,-0.16015 -0.0445,-0.22734 -0.0297,-0.0672 -0.0836,-0.13125 -0.16172,-0.19219 -0.0781,-0.0609 -0.19922,-0.12422 -0.36328,-0.18984 -0.16407,-0.0656 -0.38828,-0.14063 -0.67266,-0.225 -0.2125,-0.0625 -0.40859,-0.1336 -0.58828,-0.21329 -0.17969,-0.0797 -0.33516,-0.17421 -0.46641,-0.28359 -0.13125,-0.10937 -0.23437,-0.2375 -0.30937,-0.38438 -0.075,-0.14687 -0.1125,-0.32031 -0.1125,-0.52031 0,-0.13125 0.0305,-0.275 0.0914,-0.43125 0.0609,-0.15625 0.16484,-0.30156 0.31171,-0.43594 0.14688,-0.13437 0.34532,-0.24609 0.59532,-0.33515 0.25,-0.0891 0.5625,-0.13359 0.9375,-0.1336 0.18437,10e-6 0.38906,0.0102 0.61406,0.0305 0.225,0.0203 0.45937,0.0555 0.70313,0.10547 l 0,0.72656 c -0.25626,-0.0625 -0.49922,-0.10859 -0.72891,-0.13828 -0.22969,-0.0297 -0.42891,-0.0445 -0.59766,-0.0445 -0.20312,0 -0.37422,0.0156 -0.51328,0.0469 -0.13906,0.0312 -0.25156,0.0742 -0.3375,0.1289 -0.0859,0.0547 -0.14766,0.11876 -0.18516,0.19219 -0.0375,0.0734 -0.0562,0.15235 -0.0562,0.23672 0,0.0844 0.0164,0.16094 0.0492,0.22969 0.0328,0.0687 0.0937,0.13516 0.18282,0.19922 0.0891,0.0641 0.21328,0.12812 0.37265,0.19218 0.15938,0.0641 0.36719,0.1336 0.62344,0.2086 0.27812,0.0813 0.5125,0.16641 0.70313,0.25547 0.19062,0.0891 0.34531,0.18828 0.46406,0.29765 0.11875,0.10938 0.2039,0.23282 0.25547,0.37032 0.0516,0.1375 0.0773,0.29375 0.0773,0.46875 z"
     style="font-size:9.60001373px;fill:#666666;font-family:Consolas;-inkscape-font-specification:Consolas"
     id="path2934" /><path
     d="m 428.95759,304.286 c 0,0.16562 -0.0281,0.31406 -0.0844,0.44531 -0.0563,0.13125 -0.13282,0.24766 -0.22969,0.34922 -0.0969,0.10156 -0.20938,0.18828 -0.3375,0.26016 -0.12813,0.0719 -0.26485,0.13125 -0.41016,0.17812 -0.14532,0.0469 -0.29453,0.0813 -0.44766,0.10313 -0.15312,0.0219 -0.30312,0.0328 -0.45,0.0328 -0.31875,0 -0.61172,-0.0141 -0.8789,-0.0422 -0.26719,-0.0281 -0.52891,-0.0734 -0.78516,-0.13594 l 0,-0.75 c 0.275,0.0781 0.54843,0.1375 0.82031,0.17813 0.27188,0.0406 0.54219,0.0609 0.81094,0.0609 0.39062,0 0.67969,-0.0531 0.86719,-0.15938 0.1875,-0.10625 0.28125,-0.25781 0.28125,-0.45469 0,-0.0844 -0.0148,-0.16015 -0.0445,-0.22734 -0.0297,-0.0672 -0.0836,-0.13125 -0.16172,-0.19219 -0.0781,-0.0609 -0.19922,-0.12422 -0.36328,-0.18984 -0.16407,-0.0656 -0.38829,-0.14063 -0.67266,-0.225 -0.2125,-0.0625 -0.4086,-0.1336 -0.58828,-0.21329 -0.17969,-0.0797 -0.33516,-0.17421 -0.46641,-0.28359 -0.13125,-0.10937 -0.23438,-0.2375 -0.30937,-0.38438 -0.075,-0.14687 -0.11251,-0.32031 -0.1125,-0.52031 -10e-6,-0.13125 0.0305,-0.275 0.0914,-0.43125 0.0609,-0.15625 0.16484,-0.30156 0.31172,-0.43594 0.14688,-0.13437 0.34531,-0.24609 0.59531,-0.33515 0.25,-0.0891 0.5625,-0.13359 0.93751,-0.1336 0.18437,10e-6 0.38906,0.0102 0.61406,0.0305 0.225,0.0203 0.45937,0.0555 0.70313,0.10547 l 0,0.72656 c -0.25626,-0.0625 -0.49923,-0.10859 -0.72891,-0.13828 -0.22969,-0.0297 -0.42891,-0.0445 -0.59766,-0.0445 -0.20313,0 -0.37422,0.0156 -0.51328,0.0469 -0.13907,0.0312 -0.25157,0.0742 -0.3375,0.1289 -0.0859,0.0547 -0.14766,0.11876 -0.18516,0.19219 -0.0375,0.0734 -0.0562,0.15235 -0.0562,0.23672 0,0.0844 0.0164,0.16094 0.0492,0.22969 0.0328,0.0687 0.0937,0.13516 0.18281,0.19922 0.0891,0.0641 0.21328,0.12812 0.37266,0.19218 0.15937,0.0641 0.36719,0.1336 0.62344,0.2086 0.27812,0.0813 0.5125,0.16641 0.70312,0.25547 0.19063,0.0891 0.34531,0.18828 0.46407,0.29765 0.11874,0.10938 0.2039,0.23282 0.25547,0.37032 0.0516,0.1375 0.0773,0.29375 0.0773,0.46875 z"
     style="font-size:9.60001373px;fill:#666666;font-family:Consolas;-inkscape-font-specification:Consolas"
     id="path2936" /></g>



</g><g
   transform="translate(361.26983,-437.03512)"
   v:groupContext="shape"
   v:mID="19"
   id="shape19-49">
			<title
   id="title107">Tabelle.19</title>
			<ellipse
   style="fill:none;stroke:#ffffff;stroke-width:17;stroke-linecap:round;stroke-linejoin:round"
   sodipodi:ry="68.665497"
   sodipodi:rx="69.165398"
   sodipodi:cy="773.224"
   sodipodi:cx="69.165398"
   d="m 138.3308,773.224 c 0,37.92291 -30.96641,68.6655 -69.165402,68.6655 C 30.966403,841.8895 0,811.14691 0,773.224 c 0,-37.92291 30.966403,-68.6655 69.165398,-68.6655 38.198992,0 69.165402,30.74259 69.165402,68.6655 z"
   id="ellipse109"
   class="st12"
   ry="68.665497"
   rx="69.165398"
   cy="773.224"
   cx="69.165398" />
		</g>
<rect
   style="fill:#ffffff"
   id="rect3044"
   width="17.342073"
   height="64.796295"
   x="58.715954"
   y="632.13745"
   transform="matrix(0.70710678,-0.70710678,0.70710678,0.70710678,0,0)" /><rect
   style="fill:#ffffff"
   id="rect3048"
   width="10.930612"
   height="18.880148"
   x="62.033165"
   y="616.27094"
   transform="matrix(0.70710678,-0.70710678,0.70710678,0.70710678,0,0)" /><g
   style="font-size:214.39955139000000000px;font-style:normal;font-weight:normal;fill:#ffffff;fill-opacity:1;stroke:none;font-family:Bitstream Vera Sans"
   id="text3050"><path
     d="m 180.51331,368.04842 c -9e-5,15.07499 -5.37403,26.48589 -16.12184,34.23274 -9.49172,6.90936 -22.33334,10.36403 -38.52492,10.36404 -7.74689,-10e-6 -17.97134,-2.09375 -30.673369,-6.28124 l 2.093745,-19.89058 c 11.794744,4.81563 22.158774,7.22344 31.092124,7.22342 7.25826,2e-5 13.67908,-1.84946 19.26246,-5.54843 6.7697,-4.53642 10.15459,-10.81765 10.15466,-18.84371 -7e-5,-9.07285 -5.58339,-16.71501 -16.74996,-22.92651 -10.32919,-5.37388 -20.62343,-10.78272 -30.88275,-16.22653 -11.166657,-7.88635 -16.749973,-18.42486 -16.749963,-31.61556 -1e-5,-12.84151 4.641121,-22.96127 13.923413,-30.35931 8.7239,-6.90921 20.09991,-10.36389 34.12805,-10.36404 11.23636,1.5e-4 21.87956,1.77983 31.92962,5.33905 l -3.03593,19.7859 c -10.5386,-4.18736 -19.89065,-6.28111 -28.05619,-6.28124 -17.44792,1.3e-4 -26.17186,6.66522 -26.17182,19.99527 -4e-5,7.53759 5.58328,14.30736 16.74996,20.30933 19.33218,10.32923 29.62642,15.98234 30.88275,16.95934 11.16655,8.65422 16.74987,20.03022 16.74996,34.12806 z"
     style="font-family:Frutiger Linotype;-inkscape-font-specification:Frutiger Linotype;fill:#ffffff;fill-opacity:1"
     id="path2959" /><path
     d="m 332.30987,333.92036 c -1.4e-4,24.70625 -7.15376,43.65463 -21.46089,56.8452 -13.81883,12.84164 -33.25575,19.26246 -58.31082,19.26246 l -44.17803,0 0,-149.70282 44.17803,0 c 22.89154,1.5e-4 41.73523,6.52565 56.53114,19.57652 15.49358,13.53968 23.24043,31.54587 23.24057,54.01864 z m -22.71714,0.8375 c -1.2e-4,-17.02904 -5.26937,-30.63837 -15.80778,-40.82804 -10.05007,-9.77069 -23.03128,-14.65609 -38.94367,-14.65622 l -25.02026,0 0,111.9107 22.50777,0 c 38.17586,2e-5 57.26382,-18.80877 57.26394,-56.42644 z"
     style="font-family:Frutiger Linotype;-inkscape-font-specification:Frutiger Linotype;fill:#ffffff;fill-opacity:1"
     id="path2961" /></g>


<g
   style="font-size:34.01561355999999800px;font-style:normal;font-weight:normal;fill:#ffffff;fill-opacity:1;stroke:none;font-family:Bitstream Vera Sans"
   id="text3054"><path
     d="m 111.28404,443.61298 c -2e-5,2.15256 -0.76736,3.78192 -2.30203,4.88809 -1.35532,0.98658 -3.18898,1.47988 -5.50097,1.47988 -1.10617,0 -2.56612,-0.29897 -4.379838,-0.8969 l 0.298966,-2.84017 c 1.684172,0.68762 3.164042,1.03143 4.439632,1.03143 1.03641,0 1.95323,-0.26408 2.75048,-0.79226 0.96665,-0.64775 1.44997,-1.54465 1.44999,-2.69069 -2e-5,-1.29551 -0.79726,-2.38673 -2.39173,-3.27367 -1.4749,-0.76733 -2.94481,-1.53966 -4.40974,-2.31698 -1.59448,-1.12609 -2.39172,-2.63088 -2.391718,-4.51437 -2e-6,-1.83364 0.662704,-3.27864 1.988118,-4.335 1.24569,-0.98657 2.87006,-1.47986 4.87314,-1.47988 1.60443,2e-5 3.12417,0.25414 4.55922,0.76236 l -0.4335,2.82522 c -1.50481,-0.59791 -2.84018,-0.89687 -4.00614,-0.89689 -2.49138,2e-5 -3.73707,0.95172 -3.73706,2.85512 -1e-5,1.07629 0.79723,2.04294 2.39172,2.89996 2.76043,1.47491 4.23035,2.28211 4.40974,2.42162 1.59446,1.23573 2.3917,2.86011 2.39172,4.87313 z"
     style="font-size:30.61404800000000000px;font-family:Frutiger Linotype;-inkscape-font-specification:Frutiger Linotype;fill:#ffffff;fill-opacity:1"
     id="path3736" /><path
     d="m 130.01422,441.80424 c -2e-5,2.27215 -0.73747,4.1905 -2.21235,5.75509 -1.5048,1.61441 -3.40821,2.42162 -5.71024,2.42162 -2.32197,0 -4.24032,-0.80721 -5.75508,-2.42162 -1.4749,-1.56459 -2.21234,-3.48294 -2.21234,-5.75509 0,-2.39171 0.73495,-4.35242 2.20487,-5.88214 1.46991,-1.52969 3.39076,-2.29454 5.76255,-2.29456 2.35185,2e-5 4.26025,0.76487 5.72519,2.29456 1.46491,1.52972 2.19738,3.49043 2.1974,5.88214 z m -3.0644,0 c -1e-5,-1.57454 -0.42853,-2.91988 -1.28555,-4.03603 -0.91684,-1.20581 -2.10772,-1.80872 -3.57264,-1.80874 -1.48486,2e-5 -2.69069,0.60293 -3.61748,1.80874 -0.85703,1.11615 -1.28555,2.46149 -1.28555,4.03603 0,1.55463 0.39364,2.87506 1.18092,3.96129 0.89689,1.25566 2.13759,1.88349 3.72211,1.88349 1.56458,0 2.79532,-0.62783 3.69223,-1.88349 0.77729,-1.08623 1.16595,-2.40666 1.16596,-3.96129 z"
     style="font-size:30.61404800000000000px;font-family:Frutiger Linotype;-inkscape-font-specification:Frutiger Linotype;fill:#ffffff;fill-opacity:1"
     id="path3738" /><path
     d="m 142.91457,426.46732 -0.11958,2.31698 c -0.33884,-0.11956 -0.79726,-0.17935 -1.37525,-0.17937 -1.156,2e-5 -1.9383,0.36874 -2.34687,1.10617 -0.29898,0.51822 -0.44846,1.38522 -0.44845,2.601 l 0,1.68915 4.14067,0 0,2.31698 -4.14067,0 0,13.28901 -2.87007,0 0,-13.28901 -3.67727,0 0,-2.31698 3.67727,0 0,-1.44998 c 0,-2.08277 0.33882,-3.60251 1.01648,-4.55922 0.81717,-1.14601 2.22231,-1.71903 4.21542,-1.71905 0.50823,2e-5 1.151,0.0648 1.92832,0.19432 z"
     style="font-size:30.61404800000000000px;font-family:Frutiger Linotype;-inkscape-font-specification:Frutiger Linotype;fill:#ffffff;fill-opacity:1"
     id="path3740" /><path
     d="m 154.3201,449.54745 c -0.99656,0.289 -1.81373,0.4335 -2.45152,0.4335 -3.19893,0 -4.7984,-1.51476 -4.79839,-4.54428 l 0,-9.11844 -3.52779,0 0,-2.31698 3.52779,0 0,-3.61748 2.87007,-0.92679 0,4.54427 4.14067,0 0,2.31698 -4.14067,0 0,8.55041 c -1e-5,0.867 0.23916,1.55462 0.71751,2.06286 0.44844,0.47835 1.01648,0.71752 1.7041,0.71752 0.73744,0 1.39018,-0.18436 1.95823,-0.55309 z"
     style="font-size:30.61404800000000000px;font-family:Frutiger Linotype;-inkscape-font-specification:Frutiger Linotype;fill:#ffffff;fill-opacity:1"
     id="path3742" /><path
     d="m 180.35998,434.00125 -5.00767,15.60599 -3.34841,0 -4.03604,-13.10963 -0.0598,0 -3.94634,13.10963 -3.34841,0 -5.00767,-15.60599 3.15408,0 3.57264,12.9153 0.0598,0 3.97624,-12.9153 3.4082,0 3.91645,12.9153 0.0598,0 3.79686,-12.9153 z"
     style="font-size:30.61404800000000000px;font-family:Frutiger Linotype;-inkscape-font-specification:Frutiger Linotype;fill:#ffffff;fill-opacity:1"
     id="path3744" /><path
     d="m 195.48762,449.60724 -2.69069,0 0,-2.01802 -0.0598,0 c -1.13608,1.59449 -2.75049,2.39173 -4.84324,2.39173 -1.7639,0 -3.13914,-0.38866 -4.12572,-1.16597 -1.06631,-0.8371 -1.59946,-2.07282 -1.59946,-3.70717 0,-1.77385 0.8371,-3.1192 2.51131,-4.03603 1.33537,-0.73744 2.91988,-1.10616 4.75354,-1.10617 1.28555,10e-6 2.30203,0.0199 3.04945,0.0598 -1e-5,-1.39516 -0.27905,-2.41164 -0.8371,-3.04945 -0.60791,-0.67764 -1.61442,-1.01646 -3.01955,-1.01648 -1.75394,2e-5 -3.26371,0.52819 -4.52933,1.58452 l -0.14948,-2.45152 c 1.64431,-0.9766 3.35837,-1.46491 5.1422,-1.46493 2.19241,2e-5 3.79685,0.54314 4.81335,1.62936 0.9766,1.0464 1.46491,2.65582 1.46493,4.82829 l 0,6.45765 c -2e-5,1.43504 0.0398,2.4565 0.11958,3.0644 z m -3.0046,-6.069 0,-1.37524 c -0.19932,10e-6 -0.50327,-0.01 -0.91184,-0.0299 -0.4086,-0.0199 -0.71255,-0.0299 -0.91185,-0.0299 -3.61748,1e-5 -5.42622,1.00154 -5.42622,3.0046 0,0.76735 0.31889,1.39518 0.95669,1.88348 0.56803,0.43849 1.22077,0.65773 1.95822,0.65773 1.37524,0 2.45151,-0.39364 3.22883,-1.18092 0.73744,-0.73744 1.10616,-1.71406 1.10617,-2.92986 z"
     style="font-size:30.61404800000000000px;font-family:Frutiger Linotype;-inkscape-font-specification:Frutiger Linotype;fill:#ffffff;fill-opacity:1"
     id="path3746" /><path
     d="m 208.9859,436.40792 c -0.44846,-0.17937 -0.98161,-0.26906 -1.59947,-0.26907 -1.29552,1e-5 -2.32944,0.57303 -3.10176,1.71905 -0.77233,1.14605 -1.1585,2.69568 -1.15849,4.64891 l 0,7.10043 -2.87007,0 0,-15.60599 2.69069,0 0,2.40667 0.0598,0 c 0.38865,-0.81716 0.95918,-1.48485 1.71158,-2.00307 0.75239,-0.51819 1.54215,-0.77729 2.3693,-0.77731 0.54809,2e-5 1.1809,0.0698 1.89843,0.20928 z"
     style="font-size:30.61404800000000000px;font-family:Frutiger Linotype;-inkscape-font-specification:Frutiger Linotype;fill:#ffffff;fill-opacity:1"
     id="path3748" /><path
     d="m 225.3094,442.44702 -11.13645,0 c -10e-6,1.5048 0.5182,2.75547 1.55462,3.75201 0.98657,0.96666 2.18243,1.44999 3.58758,1.44999 0.86699,0 1.81869,-0.18935 2.85512,-0.56804 0.88692,-0.31889 1.53966,-0.65274 1.95822,-1.00153 l 0,2.88501 c -1.87353,0.67766 -3.51783,1.01649 -4.93293,1.01649 -2.69069,0 -4.72864,-0.77731 -6.11384,-2.33193 -1.31545,-1.45497 -1.97317,-3.49789 -1.97317,-6.12879 0,-2.32196 0.67267,-4.21789 2.01802,-5.68782 1.34534,-1.4699 3.11421,-2.20485 5.30663,-2.20487 4.58412,2e-5 6.87619,2.93984 6.8762,8.81948 z m -3.04944,-2.15255 c -1e-5,-1.23571 -0.33884,-2.25718 -1.01648,-3.0644 -0.71753,-0.84705 -1.67422,-1.27058 -2.87007,-1.2706 -1.29552,2e-5 -2.32197,0.46839 -3.07934,1.40514 -0.61787,0.77732 -0.99158,1.75394 -1.12112,2.92986 z"
     style="font-size:30.61404800000000000px;font-family:Frutiger Linotype;-inkscape-font-specification:Frutiger Linotype;fill:#ffffff;fill-opacity:1"
     id="path3750" /><path
     d="m 255.47501,438.73985 c -2e-5,3.5278 -1.02148,6.23343 -3.06439,8.11691 -1.97319,1.83365 -4.74858,2.75048 -8.32619,2.75048 l -6.30816,0 0,-21.37602 6.30816,0 c 3.26868,2e-5 5.95937,0.93179 8.07207,2.79532 2.21232,1.93333 3.31849,4.50443 3.31851,7.71331 z m -3.24377,0.11959 c -2e-5,-2.43158 -0.75241,-4.37485 -2.25719,-5.82983 -1.43505,-1.39515 -3.28863,-2.09274 -5.56075,-2.09275 l -3.57264,0 0,15.97969 3.21388,0 c 5.45112,0 8.17668,-2.6857 8.1767,-8.05711 z"
     style="font-size:30.61404800000000000px;font-family:Frutiger Linotype;-inkscape-font-specification:Frutiger Linotype;fill:#ffffff;fill-opacity:1"
     id="path3752" /><path
     d="m 272.96448,442.44702 -11.13646,0 c 0,1.5048 0.5182,2.75547 1.55462,3.75201 0.98658,0.96666 2.18244,1.44999 3.58758,1.44999 0.86699,0 1.8187,-0.18935 2.85512,-0.56804 0.88692,-0.31889 1.53966,-0.65274 1.95823,-1.00153 l 0,2.88501 c -1.87353,0.67766 -3.51784,1.01649 -4.93293,1.01649 -2.6907,0 -4.72864,-0.77731 -6.11384,-2.33193 -1.31545,-1.45497 -1.97317,-3.49789 -1.97317,-6.12879 0,-2.32196 0.67267,-4.21789 2.01801,-5.68782 1.34534,-1.4699 3.11422,-2.20485 5.30664,-2.20487 4.58412,2e-5 6.87618,2.93984 6.8762,8.81948 z m -3.04945,-2.15255 c -10e-6,-1.23571 -0.33884,-2.25718 -1.01648,-3.0644 -0.71753,-0.84705 -1.67421,-1.27058 -2.87007,-1.2706 -1.29552,2e-5 -2.32197,0.46839 -3.07934,1.40514 -0.61787,0.77732 -0.99157,1.75394 -1.12112,2.92986 z"
     style="font-size:30.61404800000000000px;font-family:Frutiger Linotype;-inkscape-font-specification:Frutiger Linotype;fill:#ffffff;fill-opacity:1"
     id="path3754" /><path
     d="m 285.26691,445.10781 c -10e-6,1.57455 -0.55808,2.80031 -1.67421,3.67727 -1.00652,0.79725 -2.26716,1.19587 -3.78191,1.19587 -1.78383,0 -3.20889,-0.289 -4.2752,-0.867 l 0.14948,-2.57111 c 1.13607,0.73745 2.33193,1.10618 3.58759,1.10618 0.7773,0 1.43004,-0.16443 1.95822,-0.4933 0.64775,-0.38865 0.97163,-0.97163 0.97164,-1.74894 -10e-6,-0.75738 -0.58299,-1.45496 -1.74895,-2.09276 -1.08625,-0.58796 -2.17249,-1.17592 -3.25872,-1.7639 -1.16597,-0.83709 -1.74895,-1.87849 -1.74895,-3.12418 0,-1.55461 0.52817,-2.76044 1.58452,-3.61748 0.98658,-0.78726 2.29206,-1.1809 3.91644,-1.18092 1.01648,2e-5 2.21234,0.20431 3.58758,0.61288 l -0.23917,2.51131 c -0.30894,-0.18933 -0.8122,-0.37369 -1.50977,-0.55309 -0.65773,-0.15943 -1.16597,-0.23915 -1.52473,-0.23917 -0.78728,2e-5 -1.43005,0.15448 -1.92832,0.4634 -0.55807,0.33884 -0.83711,0.81718 -0.8371,1.43503 -10e-6,0.84708 0.58796,1.57456 1.76389,2.18245 1.08623,0.55808 2.17247,1.11614 3.25872,1.6742 1.16596,0.83711 1.74894,1.9682 1.74895,3.39326 z"
     style="font-size:30.61404800000000000px;font-family:Frutiger Linotype;-inkscape-font-specification:Frutiger Linotype;fill:#ffffff;fill-opacity:1"
     id="path3756" /><path
     d="m 292.17301,430.50336 -3.24378,0 0,-3.24378 3.24378,0 z m -0.17938,19.10388 -2.88502,0 0,-15.60599 2.88502,0 z"
     style="font-size:30.61404800000000000px;font-family:Frutiger Linotype;-inkscape-font-specification:Frutiger Linotype;fill:#ffffff;fill-opacity:1"
     id="path3758" /><path
     d="m 311.03771,448.93457 c -2e-5,4.98275 -2.68074,7.47412 -8.04217,7.47413 -1.64432,-1e-5 -3.51285,-0.35877 -5.6056,-1.07628 l 0.31391,-2.66079 c 2.04293,0.93676 3.91644,1.40514 5.62055,1.40514 1.51475,0 2.70064,-0.47835 3.55769,-1.43503 0.85702,-0.95669 1.28553,-2.26217 1.28555,-3.91645 l 0,-1.53967 -0.0598,0 c -1.21581,1.61441 -2.95977,2.42162 -5.2319,2.42162 -2.13262,0 -3.80683,-0.77731 -5.02262,-2.33193 -1.10617,-1.40513 -1.65925,-3.18896 -1.65925,-5.35148 0,-2.20237 0.57301,-4.08585 1.71905,-5.65044 1.29551,-1.76388 3.04944,-2.64583 5.26179,-2.64585 2.5113,2e-5 4.22536,0.89691 5.1422,2.69069 l 0.0598,0 0,-2.31698 2.6608,0 z m -2.87007,-6.95095 c -2e-5,-1.72402 -0.3787,-3.13414 -1.13607,-4.23036 -0.82715,-1.19584 -1.9682,-1.79377 -3.42315,-1.79379 -1.35532,2e-5 -2.44654,0.63283 -3.27367,1.89843 -0.71752,1.12612 -1.07628,2.4316 -1.07628,3.91645 0,1.52473 0.38865,2.81028 1.16597,3.85665 0.81716,1.09621 1.87849,1.64431 3.18398,1.64431 1.3254,0 2.4216,-0.5182 3.28862,-1.55462 0.84705,-1.00651 1.27058,-2.2522 1.2706,-3.73707 z"
     style="font-size:30.61404800000000000px;font-family:Frutiger Linotype;-inkscape-font-specification:Frutiger Linotype;fill:#ffffff;fill-opacity:1"
     id="path3760" /><path
     d="m 329.75295,449.60724 -2.87007,0 0,-8.08701 c -10e-6,-1.89344 -0.23919,-3.26868 -0.71752,-4.12572 -0.50825,-0.92678 -1.37027,-1.40513 -2.58605,-1.43504 -1.57456,-0.0498 -2.7754,0.53317 -3.60253,1.74895 -0.76735,1.12611 -1.15102,2.68571 -1.15102,4.67881 l 0,7.22001 -2.87006,0 0,-15.60599 2.78037,0 0,2.46646 0.0598,0 c 0.42851,-0.86698 1.11114,-1.55709 2.04791,-2.07033 0.93675,-0.51321 1.95821,-0.76982 3.06439,-0.76984 3.8965,2e-5 5.84476,2.23229 5.84478,6.69683 z"
     style="font-size:30.61404800000000000px;font-family:Frutiger Linotype;-inkscape-font-specification:Frutiger Linotype;fill:#ffffff;fill-opacity:1"
     id="path3762" /><path
     d="m 355.43406,449.60724 -2.69068,0 0,-2.01802 -0.0598,0 c -1.13608,1.59449 -2.75049,2.39173 -4.84324,2.39173 -1.7639,0 -3.13914,-0.38866 -4.12572,-1.16597 -1.06631,-0.8371 -1.59946,-2.07282 -1.59946,-3.70717 0,-1.77385 0.8371,-3.1192 2.51131,-4.03603 1.33537,-0.73744 2.91989,-1.10616 4.75355,-1.10617 1.28554,10e-6 2.30202,0.0199 3.04944,0.0598 -1e-5,-1.39516 -0.27904,-2.41164 -0.8371,-3.04945 -0.60791,-0.67764 -1.61442,-1.01646 -3.01955,-1.01648 -1.75394,2e-5 -3.26371,0.52819 -4.52932,1.58452 l -0.14949,-2.45152 c 1.64431,-0.9766 3.35837,-1.46491 5.14221,-1.46493 2.1924,2e-5 3.79684,0.54314 4.81334,1.62936 0.9766,1.0464 1.46491,2.65582 1.46493,4.82829 l 0,6.45765 c -2e-5,1.43504 0.0398,2.4565 0.11958,3.0644 z m -3.0046,-6.069 0,-1.37524 c -0.19932,10e-6 -0.50327,-0.01 -0.91184,-0.0299 -0.4086,-0.0199 -0.71255,-0.0299 -0.91185,-0.0299 -3.61748,1e-5 -5.42622,1.00154 -5.42622,3.0046 0,0.76735 0.31889,1.39518 0.95669,1.88348 0.56803,0.43849 1.22077,0.65773 1.95823,0.65773 1.37523,0 2.4515,-0.39364 3.22882,-1.18092 0.73744,-0.73744 1.10616,-1.71406 1.10617,-2.92986 z"
     style="font-size:30.61404800000000000px;font-family:Frutiger Linotype;-inkscape-font-specification:Frutiger Linotype;fill:#ffffff;fill-opacity:1"
     id="path3764" /><path
     d="m 373.9998,449.60724 -2.87006,0 0,-8.08701 c -2e-5,-1.89344 -0.23919,-3.26868 -0.71752,-4.12572 -0.50825,-0.92678 -1.37027,-1.40513 -2.58605,-1.43504 -1.57456,-0.0498 -2.7754,0.53317 -3.60253,1.74895 -0.76735,1.12611 -1.15103,2.68571 -1.15102,4.67881 l 0,7.22001 -2.87007,0 0,-15.60599 2.78038,0 0,2.46646 0.0598,0 c 0.42851,-0.86698 1.11115,-1.55709 2.04792,-2.07033 0.93675,-0.51321 1.95821,-0.76982 3.06439,-0.76984 3.8965,2e-5 5.84476,2.23229 5.84477,6.69683 z"
     style="font-size:30.61404800000000000px;font-family:Frutiger Linotype;-inkscape-font-specification:Frutiger Linotype;fill:#ffffff;fill-opacity:1"
     id="path3766" /><path
     d="m 392.71504,449.60724 -2.75048,0 0,-2.1974 -0.0598,0 c -1.12612,1.71407 -2.89998,2.57111 -5.32158,2.57111 -2.21235,0 -3.92144,-0.87697 -5.12726,-2.6309 -1.05634,-1.53468 -1.58452,-3.47796 -1.58451,-5.82982 -10e-6,-2.23227 0.55806,-4.0709 1.6742,-5.51591 1.21579,-1.5845 2.90494,-2.37676 5.06746,-2.37678 2.41165,2e-5 4.13568,0.83712 5.1721,2.51131 l 0.0598,0 0,-9.49215 2.87006,0 z m -2.87006,-7.7731 c -2e-5,-1.59447 -0.37871,-2.93981 -1.13607,-4.03603 -0.85705,-1.22575 -2.01803,-1.83862 -3.48295,-1.83864 -1.45497,2e-5 -2.56114,0.60791 -3.31851,1.82369 -0.64777,1.03642 -0.97164,2.35685 -0.97164,3.96129 0,1.45497 0.33384,2.7455 1.00153,3.8716 0.79724,1.35531 1.90341,2.03297 3.31852,2.03297 1.49481,0 2.66576,-0.64278 3.51284,-1.92833 0.7175,-1.0962 1.07626,-2.39172 1.07628,-3.88655 z"
     style="font-size:30.61404800000000000px;font-family:Frutiger Linotype;-inkscape-font-specification:Frutiger Linotype;fill:#ffffff;fill-opacity:1"
     id="path3768" /><path
     d="m 425.87029,438.91923 c -2e-5,2.4017 -0.50078,4.48947 -1.5023,6.26332 -1.00155,1.77387 -2.41914,3.0644 -4.25278,3.8716 l 4.96283,4.49943 -3.79686,0 -3.99119,-3.70717 c -0.48832,0.0897 -1.05636,0.13454 -1.7041,0.13454 -3.20891,0 -5.74014,-1.03143 -7.59372,-3.0943 -1.7938,-2.00306 -2.69069,-4.65886 -2.69069,-7.96742 0,-3.23878 0.90188,-5.86967 2.70564,-7.89269 1.87351,-2.1027 4.39976,-3.15406 7.57877,-3.15408 3.16901,2e-5 5.69527,1.05138 7.57877,3.15408 1.80373,2.02302 2.70561,4.65391 2.70563,7.89269 z m -3.24377,0 c -2e-5,-2.33192 -0.58798,-4.26522 -1.7639,-5.79993 -1.28556,-1.70408 -3.04447,-2.55613 -5.27673,-2.55615 -2.24225,2e-5 -4.00615,0.85207 -5.29169,2.55615 -1.16597,1.53471 -1.74895,3.46801 -1.74895,5.79993 0,2.33194 0.55807,4.26026 1.67421,5.78498 1.25565,1.71407 3.04445,2.5711 5.36643,2.5711 2.31198,0 4.10079,-0.85703 5.36642,-2.5711 1.11612,-1.52472 1.67419,-3.45304 1.67421,-5.78498 z"
     style="font-size:30.61404800000000000px;font-family:Frutiger Linotype;-inkscape-font-specification:Frutiger Linotype;fill:#ffffff;fill-opacity:1"
     id="path3770" /><path
     d="m 443.71852,449.60724 -2.78038,0 0,-2.48141 -0.0598,0 c -0.41856,0.87696 -1.09871,1.57206 -2.04044,2.08528 -0.94175,0.51322 -1.9657,0.76984 -3.07187,0.76984 -3.89651,0 -5.84477,-2.23726 -5.84477,-6.71178 l 0,-9.26792 2.87007,0 0,8.07206 c -10e-6,1.89346 0.23917,3.26869 0.71752,4.12572 0.50823,0.93676 1.37523,1.42009 2.60099,1.44999 1.57455,0.0399 2.77041,-0.5481 3.58759,-1.7639 0.76733,-1.11613 1.151,-2.67075 1.15101,-4.66386 l 0,-7.22001 2.87007,0 z"
     style="font-size:30.61404800000000000px;font-family:Frutiger Linotype;-inkscape-font-specification:Frutiger Linotype;fill:#ffffff;fill-opacity:1"
     id="path3772" /><path
     d="m 460.90904,449.60724 -2.69069,0 0,-2.01802 -0.0598,0 c -1.13608,1.59449 -2.75049,2.39173 -4.84324,2.39173 -1.7639,0 -3.13914,-0.38866 -4.12572,-1.16597 -1.06631,-0.8371 -1.59947,-2.07282 -1.59947,-3.70717 0,-1.77385 0.83711,-3.1192 2.51131,-4.03603 1.33538,-0.73744 2.91989,-1.10616 4.75355,-1.10617 1.28554,10e-6 2.30202,0.0199 3.04945,0.0598 -1e-5,-1.39516 -0.27905,-2.41164 -0.83711,-3.04945 -0.6079,-0.67764 -1.61442,-1.01646 -3.01954,-1.01648 -1.75394,2e-5 -3.26371,0.52819 -4.52933,1.58452 l -0.14948,-2.45152 c 1.6443,-0.9766 3.35837,-1.46491 5.1422,-1.46493 2.1924,2e-5 3.79685,0.54314 4.81334,1.62936 0.97661,1.0464 1.46492,2.65582 1.46493,4.82829 l 0,6.45765 c -10e-6,1.43504 0.0399,2.4565 0.11959,3.0644 z m -3.0046,-6.069 0,-1.37524 c -0.19932,10e-6 -0.50327,-0.01 -0.91185,-0.0299 -0.40859,-0.0199 -0.71254,-0.0299 -0.91184,-0.0299 -3.61749,1e-5 -5.42623,1.00154 -5.42622,3.0046 -1e-5,0.76735 0.31889,1.39518 0.95669,1.88348 0.56803,0.43849 1.22077,0.65773 1.95822,0.65773 1.37523,0 2.45151,-0.39364 3.22883,-1.18092 0.73743,-0.73744 1.10616,-1.71406 1.10617,-2.92986 z"
     style="font-size:30.61404800000000000px;font-family:Frutiger Linotype;-inkscape-font-specification:Frutiger Linotype;fill:#ffffff;fill-opacity:1"
     id="path3774" /><path
     d="m 468.9213,449.60724 -2.88501,0 0,-22.96054 2.88501,0 z"
     style="font-size:30.61404800000000000px;font-family:Frutiger Linotype;-inkscape-font-specification:Frutiger Linotype;fill:#ffffff;fill-opacity:1"
     id="path3776" /><path
     d="m 477.59128,430.50336 -3.24377,0 0,-3.24378 3.24377,0 z m -0.17938,19.10388 -2.88501,0 0,-15.60599 2.88501,0 z"
     style="font-size:30.61404800000000000px;font-family:Frutiger Linotype;-inkscape-font-specification:Frutiger Linotype;fill:#ffffff;fill-opacity:1"
     id="path3778" /><path
     d="m 491.19422,449.54745 c -0.99656,0.289 -1.81373,0.4335 -2.45152,0.4335 -3.19893,0 -4.79839,-1.51476 -4.79839,-4.54428 l 0,-9.11844 -3.52779,0 0,-2.31698 3.52779,0 0,-3.61748 2.87007,-0.92679 0,4.54427 4.14067,0 0,2.31698 -4.14067,0 0,8.55041 c -1e-5,0.867 0.23916,1.55462 0.71752,2.06286 0.44844,0.47835 1.01647,0.71752 1.7041,0.71752 0.73744,0 1.39018,-0.18436 1.95822,-0.55309 z"
     style="font-size:30.61404800000000000px;font-family:Frutiger Linotype;-inkscape-font-specification:Frutiger Linotype;fill:#ffffff;fill-opacity:1"
     id="path3780" /><path
     d="m 506.91978,434.00125 -5.75508,15.9498 c -0.76736,2.13262 -1.42508,3.5826 -1.97317,4.34994 -1.01649,1.40514 -2.35685,2.1077 -4.02109,2.10771 -0.49828,-1e-5 -1.15102,-0.0747 -1.95822,-0.22422 l 0.17938,-2.34688 c 0.48831,0.15944 0.93676,0.23917 1.34534,0.23917 1.08624,0 1.97815,-0.60292 2.67574,-1.80874 0.50824,-0.867 0.76236,-1.54964 0.76236,-2.04791 0,-0.0897 -0.18436,-0.64278 -0.55308,-1.65926 l -5.30664,-14.55961 3.15409,0 4.20046,12.9153 0.0598,0 4.29016,-12.9153 z"
     style="font-size:30.61404800000000000px;font-family:Frutiger Linotype;-inkscape-font-specification:Frutiger Linotype;fill:#ffffff;fill-opacity:1"
     id="path3782" /></g>


</svg>